<!-- Generator: Adobe Illustrator 22.0.1, SVG Export Plug-In  -->
<svg version="1.1"
	 xmlns="http://www.w3.org/2000/svg" xmlns:xlink="http://www.w3.org/1999/xlink" xmlns:a="http://ns.adobe.com/AdobeSVGViewerExtensions/3.0/"
	 x="0px" y="0px" width="72.695px" height="63.742px" viewBox="0 0 72.695 63.742"
	 style="enable-background:new 0 0 72.695 63.742;" xml:space="preserve">
<style type="text/css">
	.st0{fill:#FFFFFF;}
</style>
<defs>
</defs>
<g>
	<path class="st0" d="M0,62.041c-0.011-14.168,5.354-23.306,12.233-27.374c2.781-1.645,5.814-2.466,8.859-2.466
		c3.045,0.001,6.081,0.824,8.865,2.468c6.908,4.077,12.309,13.229,12.309,27.372h-4.252c0-12.442-4.483-20.335-10.216-23.719
		c-2.128-1.256-4.424-1.885-6.706-1.886c-2.282-0.001-4.576,0.627-6.7,1.884C8.681,41.699,4.226,49.579,4.236,62.041H0L0,62.041z"/>
	<path class="st0" d="M20.937,28.29c-3.906,0-7.443-1.584-10.002-4.143c-2.559-2.559-4.143-6.096-4.143-10.002
		c0-3.906,1.584-7.443,4.143-10.002C13.494,1.584,17.031,0,20.937,0c3.906,0,7.443,1.584,10.002,4.143
		c2.559,2.559,4.143,6.096,4.143,10.002c0,3.906-1.584,7.443-4.143,10.002C28.379,26.707,24.843,28.29,20.937,28.29L20.937,28.29z
		 M13.941,21.141c1.79,1.79,4.264,2.898,6.996,2.898c2.732,0,5.206-1.107,6.996-2.898c1.79-1.79,2.898-4.264,2.898-6.996
		c0-2.732-1.107-5.206-2.898-6.996c-1.79-1.79-4.264-2.898-6.996-2.898c-2.732,0-5.206,1.108-6.996,2.898
		c-1.79,1.79-2.898,4.264-2.898,6.996C11.043,16.877,12.151,19.351,13.941,21.141L13.941,21.141z"/>
	<path class="st0" d="M53.201,33.244c-3.391,0-6.462-1.375-8.684-3.597c-2.222-2.222-3.597-5.293-3.597-8.684
		c0-3.391,1.375-6.462,3.597-8.684c2.222-2.222,5.293-3.597,8.684-3.597c3.391,0,6.462,1.375,8.684,3.597
		c2.222,2.222,3.597,5.293,3.597,8.684c0,3.391-1.375,6.462-3.597,8.684C59.663,31.869,56.592,33.244,53.201,33.244L53.201,33.244z
		 M47.524,26.64c1.453,1.453,3.461,2.352,5.678,2.352c2.217,0,4.225-0.899,5.678-2.352c1.453-1.453,2.352-3.46,2.352-5.678
		s-0.899-4.225-2.352-5.678s-3.46-2.352-5.678-2.352s-4.225,0.899-5.678,2.352c-1.453,1.453-2.352,3.46-2.352,5.678
		S46.071,25.187,47.524,26.64L47.524,26.64z"/>
	<path class="st0" d="M68.459,63.742c-0.523-7.411-2.5-12.891-5.217-16.564c-1.518-2.053-3.256-3.527-5.08-4.443
		c-1.766-0.887-3.631-1.257-5.467-1.127c-2.016,0.142-4.007,0.89-5.803,2.218l-2.525-3.405c2.465-1.823,5.22-2.85,8.029-3.048
		c2.576-0.182,5.19,0.335,7.659,1.576c2.412,1.211,4.669,3.106,6.591,5.706c3.169,4.284,5.464,10.519,6.047,18.789L68.459,63.742
		L68.459,63.742z"/>
</g>
</svg>