<!-- Generator: Adobe Illustrator 22.0.1, SVG Export Plug-In  -->
<svg version="1.1"
	 xmlns="http://www.w3.org/2000/svg" xmlns:xlink="http://www.w3.org/1999/xlink" xmlns:a="http://ns.adobe.com/AdobeSVGViewerExtensions/3.0/"
	 x="0px" y="0px" width="69.999px" height="68.849px" viewBox="0 0 69.999 68.849"
	 style="enable-background:new 0 0 69.999 68.849;" xml:space="preserve">
<style type="text/css">
	.st0{fill:#FFFFFF;}
</style>
<defs>
</defs>
<path class="st0" d="M34.999,0c19.299,0,35,15.443,35,34.424s-15.701,34.424-35,34.424S0,53.406,0,34.424S15.7,0,34.999,0z
	 M34.999,64.648c16.983,0,30.801-13.559,30.801-30.224S51.982,4.2,34.999,4.2c-16.982,0-30.8,13.559-30.8,30.224
	S18.017,64.648,34.999,64.648z"/>
<path class="st0" d="M14.729,34.712c0.808,0.833,2.138,0.854,2.969,0.046l15.202-14.732v34.719c0,1.16,0.939,2.1,2.1,2.1
	s2.1-0.94,2.1-2.1V20.027l15.202,14.732c0.83,0.807,2.162,0.786,2.969-0.046c0.808-0.833,0.786-2.163-0.047-2.969L36.461,13.56
	c-0.407-0.395-0.935-0.592-1.462-0.592s-1.055,0.197-1.462,0.592L14.775,31.743C13.942,32.549,13.921,33.879,14.729,34.712z"/>
</svg>