<!-- Generator: Adobe Illustrator 22.0.1, SVG Export Plug-In  -->
<svg version="1.1"
	 xmlns="http://www.w3.org/2000/svg" xmlns:xlink="http://www.w3.org/1999/xlink" xmlns:a="http://ns.adobe.com/AdobeSVGViewerExtensions/3.0/"
	 x="0px" y="0px" width="654.071px" height="255.029px" viewBox="0 0 654.071 255.029"
	 style="enable-background:new 0 0 654.071 255.029;" xml:space="preserve">
<style type="text/css">
	.st0{fill:#FFFFFF;}
</style>
<defs>
</defs>
<g>
	<path class="st0" d="M55.612,73.86h7.36v5.199H49.473V55.442h6.139V73.86z"/>
	<path class="st0" d="M82.432,79.059h-5.7v-1.785h-0.062c-1.002,1.598-2.976,2.318-4.855,2.318c-4.762,0-8.113-3.979-8.113-8.583
		c0-4.603,3.289-8.55,8.05-8.55c1.848,0,3.79,0.689,4.98,2.099V62.99h5.7V79.059z M69.59,71.04c0,2.036,1.347,3.602,3.664,3.602
		c2.318,0,3.665-1.566,3.665-3.602c0-1.973-1.347-3.633-3.665-3.633C70.937,67.407,69.59,69.068,69.59,71.04z"/>
	<path class="st0" d="M96.852,67.125c-0.876-0.471-2.098-0.783-3.069-0.783c-0.658,0-1.785,0.282-1.785,1.095
		c0,1.097,1.785,1.254,2.568,1.41c2.663,0.532,4.667,1.785,4.667,4.76c0,4.229-3.852,5.983-7.58,5.983
		c-2.286,0-4.542-0.658-6.483-1.849l2.067-3.977c1.159,0.815,3.1,1.628,4.51,1.628c0.72,0,1.785-0.344,1.785-1.222
		c0-1.252-1.785-1.315-3.571-1.785c-1.785-0.469-3.571-1.347-3.571-4.229c0-3.947,3.571-5.7,7.079-5.7
		c1.816,0,3.633,0.282,5.293,1.033L96.852,67.125z"/>
	<path class="st0" d="M112.928,67.125c-0.876-0.471-2.098-0.783-3.069-0.783c-0.657,0-1.785,0.282-1.785,1.095
		c0,1.097,1.785,1.254,2.568,1.41c2.663,0.532,4.667,1.785,4.667,4.76c0,4.229-3.852,5.983-7.58,5.983
		c-2.286,0-4.541-0.658-6.483-1.849l2.067-3.977c1.159,0.815,3.1,1.628,4.51,1.628c0.72,0,1.785-0.344,1.785-1.222
		c0-1.252-1.785-1.315-3.571-1.785c-1.785-0.469-3.571-1.347-3.571-4.229c0-3.947,3.571-5.7,7.079-5.7
		c1.816,0,3.633,0.282,5.293,1.033L112.928,67.125z"/>
	<path class="st0" d="M134.894,71.98h-11.996c0,2.317,1.222,3.571,3.571,3.571c1.222,0,2.099-0.407,2.725-1.472h5.481
		c-0.439,1.878-1.566,3.257-3.038,4.165c-1.473,0.909-3.289,1.348-5.138,1.348c-5.324,0-9.303-3.007-9.303-8.552
		c0-5.356,3.665-8.582,8.896-8.582c5.575,0,8.801,3.446,8.801,8.926V71.98z M129.6,68.691c-0.282-1.535-1.691-2.538-3.226-2.538
		c-1.66,0-3.038,0.877-3.383,2.538H129.6z"/>
	<path class="st0" d="M143.204,65.058h0.062c1.316-1.942,2.914-2.6,5.138-2.6c4.322,0,6.044,2.725,6.044,6.672v9.929h-5.7v-7.831
		c0-1.534,0.25-4.229-2.568-4.229c-2.318,0-2.976,1.723-2.976,3.727v8.332h-5.7V62.99h5.7V65.058z"/>
	<path class="st0" d="M173.978,55.442c-1.785,4.73-2.506,9.898-2.506,15.035s0.72,10.305,2.506,15.035l-2.223,1.065
		c-2.193-4.667-2.851-11.025-2.851-16.099s0.658-11.432,2.851-16.099L173.978,55.442z"/>
	<path class="st0" d="M182.566,79.059h-5.7V53.061h5.7V79.059z"/>
	<path class="st0" d="M203.9,79.059h-5.7v-1.785h-0.062c-1.002,1.598-2.976,2.318-4.855,2.318c-4.762,0-8.113-3.979-8.113-8.583
		c0-4.603,3.289-8.55,8.05-8.55c1.848,0,3.79,0.689,4.98,2.099V62.99h5.7V79.059z M191.059,71.04c0,2.036,1.347,3.602,3.664,3.602
		c2.318,0,3.665-1.566,3.665-3.602c0-1.973-1.347-3.633-3.665-3.633C192.405,67.407,191.059,69.068,191.059,71.04z"/>
	<path class="st0" d="M218.32,67.125c-0.876-0.471-2.098-0.783-3.069-0.783c-0.658,0-1.785,0.282-1.785,1.095
		c0,1.097,1.785,1.254,2.568,1.41c2.663,0.532,4.667,1.785,4.667,4.76c0,4.229-3.852,5.983-7.58,5.983
		c-2.286,0-4.542-0.658-6.483-1.849l2.067-3.977c1.159,0.815,3.1,1.628,4.51,1.628c0.72,0,1.785-0.344,1.785-1.222
		c0-1.252-1.785-1.315-3.571-1.785c-1.785-0.469-3.571-1.347-3.571-4.229c0-3.947,3.571-5.7,7.079-5.7
		c1.816,0,3.633,0.282,5.293,1.033L218.32,67.125z"/>
	<path class="st0" d="M230.012,79.059h-5.701v-11.37h-1.848V62.99h1.848v-4.823h5.701v4.823h3.226v4.699h-3.226V79.059z"/>
	<path class="st0" d="M251.567,71.98h-11.996c0,2.317,1.222,3.571,3.571,3.571c1.222,0,2.099-0.407,2.725-1.472h5.481
		c-0.439,1.878-1.566,3.257-3.038,4.165c-1.473,0.909-3.289,1.348-5.138,1.348c-5.324,0-9.303-3.007-9.303-8.552
		c0-5.356,3.665-8.582,8.896-8.582c5.575,0,8.801,3.446,8.801,8.926V71.98z M246.274,68.691c-0.282-1.535-1.691-2.538-3.226-2.538
		c-1.66,0-3.038,0.877-3.383,2.538H246.274z"/>
	<path class="st0" d="M259.346,76.428l-3.54,8.018l-1.691-0.69l2.913-8.143L259.346,76.428z"/>
	<path class="st0" d="M276.49,53.218v12.843l0.062,0.062c1.033-1.41,2.381-2.193,4.197-2.193c4.072,0,5.012,2.944,5.012,6.39v8.739
		h-2.506v-8.3c0-2.381-0.187-4.51-3.1-4.51c-3.446,0-3.665,3.194-3.665,5.826v6.984h-2.506V53.218H276.49z"/>
	<path class="st0" d="M291.783,72.23c0.032,2.725,1.974,4.918,4.824,4.918c2.13,0,3.508-1.284,4.479-3.039l2.131,1.222
		c-1.41,2.631-3.79,4.134-6.797,4.134c-4.385,0-7.205-3.351-7.205-7.58c0-4.354,2.538-7.956,7.141-7.956
		c4.73,0,7.236,3.916,6.986,8.3H291.783z M300.711,70.1c-0.346-2.13-2.131-3.852-4.323-3.852c-2.161,0-4.166,1.723-4.48,3.852
		H300.711z"/>
	<path class="st0" d="M308.048,72.23c0.032,2.725,1.974,4.918,4.824,4.918c2.13,0,3.508-1.284,4.479-3.039l2.131,1.222
		c-1.41,2.631-3.791,4.134-6.798,4.134c-4.384,0-7.204-3.351-7.204-7.58c0-4.354,2.538-7.956,7.141-7.956
		c4.73,0,7.236,3.916,6.986,8.3H308.048z M316.976,70.1c-0.346-2.13-2.131-3.852-4.323-3.852c-2.161,0-4.166,1.723-4.479,3.852
		H316.976z"/>
	<path class="st0" d="M325.786,79.059h-2.506V66.655h-1.379v-2.317h1.379V58.48c0-1.222,0-2.756,0.658-3.821
		c0.814-1.316,2.286-1.848,3.79-1.848c0.594,0,1.19,0.125,1.785,0.312v2.538c-0.564-0.189-1.066-0.344-1.692-0.344
		c-2.035,0-2.035,1.441-2.035,4.04v4.981h3.727v2.317h-3.727V79.059z"/>
	<path class="st0" d="M334.278,79.059h-2.506V66.655h-1.535v-2.317h1.535v-5.293h2.506v5.293h2.631v2.317h-2.631V79.059z"/>
	<path class="st0" d="M365.954,77.493c0,6.827-3.382,9.584-9.303,9.584c-3.696,0-8.645-1.91-9.146-6.139h6.39
		c0.157,0.564,0.564,0.97,1.065,1.222c0.501,0.25,1.097,0.375,1.628,0.375c3.069,0,3.665-2.005,3.665-4.603v-0.752
		c-1.472,1.473-2.975,2.193-5.106,2.193c-4.698,0-7.924-3.571-7.924-8.207c0-4.698,3.321-8.707,8.238-8.707
		c1.88,0,3.602,0.626,4.73,2.224h0.062V62.99h5.7V77.493z M353.113,70.915c0,2.035,1.347,3.601,3.665,3.601
		c2.317,0,3.664-1.566,3.664-3.601c0-1.974-1.347-3.634-3.664-3.634C354.459,67.281,353.113,68.941,353.113,70.915z"/>
	<path class="st0" d="M386.042,71.98h-11.996c0,2.317,1.222,3.571,3.571,3.571c1.222,0,2.099-0.407,2.725-1.472h5.481
		c-0.439,1.878-1.566,3.257-3.038,4.165c-1.473,0.909-3.289,1.348-5.138,1.348c-5.324,0-9.303-3.007-9.303-8.552
		c0-5.356,3.665-8.582,8.896-8.582c5.575,0,8.801,3.446,8.801,8.926V71.98z M380.749,68.691c-0.282-1.535-1.691-2.538-3.226-2.538
		c-1.66,0-3.038,0.877-3.383,2.538H380.749z"/>
	<path class="st0" d="M394.353,79.059h-5.7V53.061h5.7V79.059z"/>
	<path class="st0" d="M415.688,79.059h-5.7v-1.785h-0.062c-1.002,1.598-2.976,2.318-4.855,2.318c-4.762,0-8.113-3.979-8.113-8.583
		c0-4.603,3.289-8.55,8.05-8.55c1.848,0,3.79,0.689,4.98,2.099V62.99h5.7V79.059z M402.847,71.04c0,2.036,1.347,3.602,3.664,3.602
		c2.318,0,3.665-1.566,3.665-3.602c0-1.973-1.347-3.633-3.665-3.633C404.193,67.407,402.847,69.068,402.847,71.04z"/>
	<path class="st0" d="M430.108,67.125c-0.876-0.471-2.098-0.783-3.069-0.783c-0.658,0-1.785,0.282-1.785,1.095
		c0,1.097,1.785,1.254,2.568,1.41c2.663,0.532,4.667,1.785,4.667,4.76c0,4.229-3.852,5.983-7.58,5.983
		c-2.286,0-4.542-0.658-6.483-1.849l2.067-3.977c1.159,0.815,3.1,1.628,4.51,1.628c0.72,0,1.785-0.344,1.785-1.222
		c0-1.252-1.785-1.315-3.571-1.785c-1.785-0.469-3.571-1.347-3.571-4.229c0-3.947,3.571-5.7,7.079-5.7
		c1.816,0,3.633,0.282,5.293,1.033L430.108,67.125z"/>
	<path class="st0" d="M441.8,79.059h-5.701v-11.37h-1.848V62.99h1.848v-4.823h5.701v4.823h3.226v4.699H441.8V79.059z"/>
	<path class="st0" d="M448.196,54.377c2.192,4.667,2.85,11.025,2.85,16.099s-0.658,11.432-2.85,16.099l-2.224-1.065
		c1.785-4.73,2.506-9.898,2.506-15.035s-0.72-10.305-2.506-15.035L448.196,54.377z"/>
	<path class="st0" d="M52.417,133.099l1.378-2.443h5.167v23.617h-2.631v-21.173H52.417z"/>
	<path class="st0" d="M73.351,152.894c0,0.972-0.783,1.785-1.753,1.785c-0.972,0-1.755-0.814-1.755-1.785
		c0-0.94,0.783-1.723,1.755-1.723C72.568,151.171,73.351,151.954,73.351,152.894z"/>
	<path class="st0" d="M147.595,130.656h4.448c3.539,0,6.358,0.469,8.77,2.85c2.318,2.318,3.039,5.482,2.506,8.989
		c-0.564,3.446-2.286,6.484-5.261,8.803c-3.226,2.506-6.108,2.975-9.805,2.975h-4.384L147.595,130.656z M148.784,151.829
		c2.882,0,5.356-0.407,7.862-2.443c2.224-1.816,3.602-4.291,4.041-6.922c0.407-2.693-0.219-5.293-1.942-7.079
		c-1.88-1.912-4.197-2.286-6.984-2.286h-1.912l-2.975,18.73H148.784z"/>
	<path class="st0" d="M164.958,146.943c0.689-4.322,4.667-7.799,8.989-7.799c4.323,0,7.173,3.477,6.484,7.799
		c-0.69,4.323-4.667,7.737-8.958,7.737C167.182,154.68,164.269,151.266,164.958,146.943z M167.463,146.912
		c-0.469,3.007,1.284,5.45,4.385,5.45c3.1,0,5.606-2.443,6.076-5.45c0.469-2.976-1.254-5.45-4.354-5.45
		C170.47,141.462,167.933,143.936,167.463,146.912z"/>
	<path class="st0" d="M182.571,146.943c0.689-4.322,4.667-7.799,8.989-7.799c4.323,0,7.173,3.477,6.484,7.799
		c-0.69,4.323-4.667,7.737-8.958,7.737C184.795,154.68,181.882,151.266,182.571,146.943z M185.077,146.912
		c-0.469,3.007,1.284,5.45,4.385,5.45c3.1,0,5.606-2.443,6.076-5.45c0.469-2.976-1.254-5.45-4.354-5.45
		C188.083,141.462,185.546,143.936,185.077,146.912z"/>
	<path class="st0" d="M204.789,141.148h0.062c1.065-1.158,1.973-2.005,3.601-2.005c0.847,0,1.473,0.282,2.131,0.69l-1.566,2.286
		c-0.439-0.344-0.72-0.658-1.378-0.658c-2.757,0-3.446,3.54-3.759,5.45l-1.159,7.36h-2.505l2.317-14.721h2.506L204.789,141.148z"/>
	<path class="st0" d="M226.129,149.449l5.951-9.897h2.818l-9.678,15.691l-4.762-15.691h2.85L226.129,149.449z"/>
	<path class="st0" d="M237.351,147.444c-0.407,2.725,1.19,4.918,4.041,4.918c2.13,0,3.696-1.284,4.948-3.039l1.942,1.222
		c-1.816,2.631-4.448,4.134-7.455,4.134c-4.384,0-6.671-3.351-6.014-7.58c0.69-4.354,3.822-7.956,8.427-7.956
		c4.73,0,6.608,3.916,5.668,8.3H237.351z M246.591,145.314c0-2.13-1.503-3.852-3.697-3.852c-2.16,0-4.447,1.723-5.105,3.852H246.591
		z"/>
	<path class="st0" d="M255.715,141.148h0.062c1.065-1.158,1.973-2.005,3.601-2.005c0.847,0,1.473,0.282,2.131,0.69l-1.566,2.286
		c-0.439-0.344-0.72-0.658-1.378-0.658c-2.757,0-3.446,3.54-3.759,5.45l-1.159,7.36h-2.505l2.317-14.721h2.506L255.715,141.148z"/>
	<path class="st0" d="M268.374,128.432l-2.035,12.843l0.031,0.062c1.284-1.41,2.757-2.193,4.574-2.193
		c4.072,0,4.541,2.944,3.977,6.39l-1.378,8.739h-2.506l1.316-8.3c0.376-2.381,0.532-4.51-2.381-4.51
		c-3.446,0-4.166,3.194-4.605,5.826l-1.095,6.984h-2.506l4.102-25.841H268.374z"/>
	<path class="st0" d="M281.288,154.273h-2.506l2.318-14.721h2.506L281.288,154.273z M285.016,134.007
		c-0.157,1.002-1.097,1.785-2.067,1.785s-1.66-0.783-1.503-1.785c0.157-0.97,1.127-1.785,2.099-1.785
		C284.514,132.222,285.172,133.037,285.016,134.007z"/>
	<path class="st0" d="M289.155,154.273h-2.506l1.973-12.404h-1.534l0.344-2.317h1.535l0.845-5.293h2.506l-0.845,5.293h2.631
		l-0.344,2.317h-2.632L289.155,154.273z"/>
	<path class="st0" d="M296.676,154.273h-2.506l1.973-12.404h-1.534l0.344-2.317h1.535l0.845-5.293h2.506l-0.845,5.293h2.631
		l-0.344,2.317h-2.632L296.676,154.273z"/>
	<path class="st0" d="M304.541,154.273h-2.506l2.318-14.721h2.506L304.541,154.273z M308.269,134.007
		c-0.157,1.002-1.097,1.785-2.067,1.785s-1.66-0.783-1.503-1.785c0.157-0.97,1.127-1.785,2.099-1.785
		C307.768,132.222,308.426,133.037,308.269,134.007z"/>
	<path class="st0" d="M314.318,141.337h0.062c1.284-1.41,2.757-2.193,4.574-2.193c4.072,0,4.541,2.944,3.977,6.39l-1.378,8.739
		h-2.506l1.316-8.3c0.376-2.381,0.532-4.51-2.381-4.51c-3.446,0-4.166,3.194-4.605,5.826l-1.095,6.984h-2.506l2.317-14.721h2.506
		L314.318,141.337z"/>
	<path class="st0" d="M339.731,153.552c-0.376,2.349-0.72,4.385-2.507,6.328c-1.659,1.753-3.915,2.599-6.107,2.599
		c-4.104,0-6.734-2.599-6.171-6.765h2.506c-0.407,2.725,1.284,4.448,3.977,4.448c3.884,0,5.2-2.85,5.701-6.171l0.282-1.755h-0.062
		c-1.41,1.535-3.508,2.443-5.482,2.443c-4.291,0-6.453-3.601-5.795-7.705c0.658-4.134,4.009-7.831,8.363-7.831
		c2.036,0,3.665,0.909,4.605,2.506h0.062l0.314-2.098h2.506L339.731,153.552z M328.673,146.755
		c-0.471,2.882,0.815,5.607,3.947,5.607c3.226,0,5.324-2.6,5.795-5.575c0.469-2.944-1.002-5.325-4.104-5.325
		C331.398,141.462,329.112,144,328.673,146.755z"/>
	<path class="st0" d="M356.502,147.444c-0.407,2.725,1.19,4.918,4.04,4.918c2.131,0,3.697-1.284,4.949-3.039l1.942,1.222
		c-1.816,2.631-4.448,4.134-7.455,4.134c-4.384,0-6.671-3.351-6.014-7.58c0.69-4.354,3.822-7.956,8.427-7.956
		c4.73,0,6.608,3.916,5.67,8.3H356.502z M365.742,145.314c0-2.13-1.503-3.852-3.696-3.852c-2.161,0-4.448,1.723-5.106,3.852H365.742
		z"/>
	<path class="st0" d="M374.959,141.337h0.062c1.284-1.41,2.757-2.193,4.574-2.193c4.072,0,4.541,2.944,3.977,6.39l-1.379,8.739
		h-2.506l1.316-8.3c0.376-2.381,0.532-4.51-2.381-4.51c-3.446,0-4.166,3.194-4.605,5.826l-1.095,6.984h-2.506l2.317-14.721h2.506
		L374.959,141.337z"/>
	<path class="st0" d="M405.821,129.372l-19.419,29.818l-1.88-0.94l19.388-29.818L405.821,129.372z"/>
	<path class="st0" d="M404.672,146.943c0.689-4.322,4.667-7.799,8.989-7.799c4.323,0,7.173,3.477,6.484,7.799
		c-0.69,4.323-4.667,7.737-8.958,7.737C406.896,154.68,403.983,151.266,404.672,146.943z M407.177,146.912
		c-0.471,3.007,1.284,5.45,4.385,5.45c3.1,0,5.606-2.443,6.076-5.45c0.469-2.976-1.254-5.45-4.354-5.45
		C410.184,141.462,407.647,143.936,407.177,146.912z"/>
	<path class="st0" d="M425.167,154.273h-2.506l1.973-12.404h-1.378l0.346-2.317h1.377l0.94-5.858
		c0.189-1.222,0.439-2.756,1.254-3.821c1.033-1.316,2.599-1.848,4.102-1.848c0.596,0,1.159,0.125,1.723,0.312l-0.407,2.538
		c-0.533-0.189-1.002-0.344-1.628-0.344c-2.036,0-2.256,1.441-2.663,4.04l-0.815,4.981h3.727l-0.344,2.317h-3.727L425.167,154.273z"
		/>
	<path class="st0" d="M451.926,152.236h-0.062c-1.473,1.598-3.446,2.443-5.45,2.443c-4.323,0-6.484-3.664-5.826-7.737
		c0.658-4.197,3.915-7.799,8.332-7.799c1.973,0,3.696,0.94,4.635,2.506h0.062l2.099-13.217h2.506l-4.104,25.841h-2.506
		L451.926,152.236z M443.187,146.755c-0.471,2.882,0.814,5.607,3.947,5.607c3.226,0,5.324-2.6,5.794-5.575
		c0.469-2.944-1.002-5.325-4.104-5.325C445.912,141.462,443.625,144,443.187,146.755z"/>
	<path class="st0" d="M463.211,141.148h0.062c1.065-1.158,1.973-2.005,3.601-2.005c0.847,0,1.473,0.282,2.131,0.69l-1.566,2.286
		c-0.439-0.344-0.72-0.658-1.378-0.658c-2.757,0-3.446,3.54-3.759,5.45l-1.159,7.36h-2.505l2.317-14.721h2.506L463.211,141.148z"/>
	<path class="st0" d="M472.613,147.758c-0.407,2.474-0.439,4.605,2.6,4.605c3.038,0,3.633-2.131,4.04-4.605l1.284-8.206h2.506
		l-1.315,8.488c-0.627,3.915-2.538,6.64-6.891,6.64s-5.388-2.725-4.762-6.64l1.316-8.488h2.506L472.613,147.758z"/>
	<path class="st0" d="M489.16,145.002l6.201-5.45h3.351l-7.266,6.264l6.139,8.457h-3.319l-4.856-6.702l-0.751,0.657l-0.972,6.046
		h-2.504l4.102-25.841h2.506L489.16,145.002z"/>
	<path class="st0" d="M523.125,154.273h-2.506l0.314-2.036h-0.062c-1.535,1.63-3.383,2.443-5.45,2.443
		c-4.323,0-6.484-3.664-5.826-7.737c0.658-4.197,3.915-7.799,8.332-7.799c2.005,0,3.664,0.94,4.635,2.506h0.062l0.314-2.098h2.506
		L523.125,154.273z M512.194,146.755c-0.471,2.882,0.814,5.607,3.947,5.607c3.226,0,5.324-2.6,5.794-5.575
		c0.469-2.944-1.002-5.325-4.104-5.325C514.919,141.462,512.633,144,512.194,146.755z"/>
	<path class="st0" d="M541.208,154.273h-2.506l0.314-2.036h-0.062c-1.535,1.63-3.383,2.443-5.45,2.443
		c-4.323,0-6.484-3.664-5.826-7.737c0.658-4.197,3.915-7.799,8.332-7.799c2.005,0,3.664,0.94,4.635,2.506h0.062l0.314-2.098h2.506
		L541.208,154.273z M530.277,146.755c-0.471,2.882,0.814,5.607,3.947,5.607c3.226,0,5.324-2.6,5.794-5.575
		c0.469-2.944-1.002-5.325-4.104-5.325C533.002,141.462,530.715,144,530.277,146.755z"/>
	<path class="st0" d="M550.394,141.337h0.062c1.284-1.41,2.757-2.193,4.574-2.193c4.072,0,4.541,2.944,3.977,6.39l-1.378,8.739
		h-2.506l1.316-8.3c0.376-2.381,0.532-4.51-2.381-4.51c-3.446,0-4.166,3.194-4.605,5.826l-1.095,6.984h-2.506l2.317-14.721h2.506
		L550.394,141.337z"/>
	<path class="st0" d="M146.216,185.052c-0.407,2.725,1.19,4.918,4.04,4.918c2.131,0,3.697-1.284,4.949-3.039l1.942,1.222
		c-1.816,2.631-4.448,4.134-7.455,4.134c-4.384,0-6.671-3.351-6.014-7.58c0.69-4.354,3.822-7.956,8.427-7.956
		c4.73,0,6.608,3.916,5.67,8.3H146.216z M155.456,182.923c0-2.13-1.503-3.852-3.696-3.852c-2.161,0-4.448,1.723-5.106,3.852H155.456
		z"/>
	<path class="st0" d="M162.576,191.881h-2.506l4.102-25.841h2.506L162.576,191.881z"/>
	<path class="st0" d="M171.099,182.61l6.201-5.45h3.351l-7.266,6.264l6.139,8.457h-3.319l-4.856-6.702l-0.751,0.657l-0.972,6.046
		h-2.505l4.102-25.841h2.506L171.099,182.61z"/>
	<path class="st0" d="M195.412,191.881h-2.506l0.314-2.036h-0.062c-1.535,1.63-3.383,2.443-5.45,2.443
		c-4.323,0-6.484-3.664-5.826-7.737c0.658-4.197,3.915-7.799,8.332-7.799c2.005,0,3.665,0.94,4.635,2.506h0.062l0.314-2.098h2.506
		L195.412,191.881z M184.481,184.364c-0.471,2.882,0.814,5.607,3.947,5.607c3.226,0,5.324-2.6,5.795-5.575
		c0.469-2.944-1.002-5.325-4.104-5.325C187.206,179.07,184.92,181.608,184.481,184.364z"/>
	<path class="st0" d="M213.494,191.881h-2.506l0.314-2.036h-0.062c-1.535,1.63-3.383,2.443-5.45,2.443
		c-4.323,0-6.484-3.664-5.826-7.737c0.658-4.197,3.915-7.799,8.332-7.799c2.005,0,3.665,0.94,4.635,2.506h0.062l0.314-2.098h2.506
		L213.494,191.881z M202.563,184.364c-0.471,2.882,0.814,5.607,3.947,5.607c3.226,0,5.324-2.6,5.795-5.575
		c0.469-2.944-1.002-5.325-4.104-5.325C205.289,179.07,203.002,181.608,202.563,184.364z"/>
	<path class="st0" d="M222.588,178.757h0.062c1.065-1.158,1.973-2.005,3.601-2.005c0.847,0,1.473,0.282,2.131,0.69l-1.566,2.286
		c-0.439-0.344-0.72-0.658-1.378-0.658c-2.757,0-3.446,3.54-3.759,5.45l-1.159,7.36h-2.505l2.317-14.721h2.506L222.588,178.757z"/>
	<path class="st0" d="M243.928,187.057l5.951-9.897h2.818l-9.678,15.691l-4.762-15.691h2.85L243.928,187.057z"/>
	<path class="st0" d="M255.15,185.052c-0.407,2.725,1.19,4.918,4.041,4.918c2.13,0,3.696-1.284,4.948-3.039l1.942,1.222
		c-1.816,2.631-4.448,4.134-7.455,4.134c-4.384,0-6.671-3.351-6.014-7.58c0.69-4.354,3.822-7.956,8.427-7.956
		c4.73,0,6.608,3.916,5.668,8.3H255.15z M264.39,182.923c0-2.13-1.503-3.852-3.697-3.852c-2.16,0-4.447,1.723-5.105,3.852H264.39z"
		/>
	<path class="st0" d="M273.514,178.757h0.062c1.065-1.158,1.973-2.005,3.601-2.005c0.847,0,1.473,0.282,2.131,0.69l-1.566,2.286
		c-0.439-0.344-0.72-0.658-1.378-0.658c-2.757,0-3.446,3.54-3.759,5.45l-1.159,7.36h-2.505l2.317-14.721h2.506L273.514,178.757z"/>
	<path class="st0" d="M283.543,166.04h2.506l-2.098,13.217h0.062c1.44-1.566,3.444-2.506,5.449-2.506
		c4.385,0,6.484,3.602,5.826,7.769c-0.658,4.104-3.947,7.767-8.268,7.767c-2.036,0-3.759-0.845-4.699-2.443h-0.062l-0.312,2.036
		h-2.507L283.543,166.04z M283.011,184.364c-0.471,2.882,0.814,5.607,3.947,5.607c3.225,0,5.324-2.6,5.795-5.575
		c0.469-2.944-1.002-5.325-4.104-5.325C285.736,179.07,283.448,181.608,283.011,184.364z"/>
	<path class="st0" d="M300.623,191.881h-2.506l2.318-14.721h2.506L300.623,191.881z M304.35,171.616
		c-0.157,1.002-1.097,1.785-2.067,1.785s-1.66-0.783-1.503-1.785c0.157-0.97,1.127-1.785,2.099-1.785
		C303.849,169.83,304.507,170.645,304.35,171.616z"/>
	<path class="st0" d="M310.4,178.945h0.062c1.285-1.41,2.757-2.193,4.574-2.193c4.072,0,4.541,2.944,3.977,6.39l-1.378,8.739h-2.506
		l1.316-8.3c0.376-2.381,0.532-4.51-2.381-4.51c-3.446,0-4.166,3.194-4.605,5.826l-1.095,6.984h-2.506l2.317-14.721h2.506
		L310.4,178.945z"/>
	<path class="st0" d="M333.65,189.845h-0.062c-1.473,1.598-3.446,2.443-5.45,2.443c-4.323,0-6.484-3.664-5.826-7.737
		c0.658-4.197,3.915-7.799,8.332-7.799c1.973,0,3.696,0.94,4.635,2.506h0.062l2.099-13.217h2.506l-4.104,25.841h-2.506
		L333.65,189.845z M324.911,184.364c-0.471,2.882,0.814,5.607,3.947,5.607c3.226,0,5.324-2.6,5.795-5.575
		c0.469-2.944-1.002-5.325-4.104-5.325C327.637,179.07,325.35,181.608,324.911,184.364z"/>
	<path class="st0" d="M342.837,185.052c-0.407,2.725,1.19,4.918,4.04,4.918c2.131,0,3.697-1.284,4.949-3.039l1.942,1.222
		c-1.816,2.631-4.448,4.134-7.455,4.134c-4.384,0-6.671-3.351-6.014-7.58c0.69-4.354,3.822-7.956,8.427-7.956
		c4.73,0,6.608,3.916,5.67,8.3H342.837z M352.077,182.923c0-2.13-1.503-3.852-3.696-3.852c-2.161,0-4.448,1.723-5.106,3.852H352.077
		z"/>
	<path class="st0" d="M361.294,178.945h0.062c1.284-1.41,2.757-2.193,4.574-2.193c4.072,0,4.541,2.944,3.977,6.39l-1.378,8.739
		h-2.506l1.316-8.3c0.376-2.381,0.532-4.51-2.381-4.51c-3.446,0-4.166,3.194-4.605,5.826l-1.095,6.984h-2.506l2.317-14.721h2.506
		L361.294,178.945z"/>
	<path class="st0" d="M388.59,187.057l5.951-9.897h2.818l-9.677,15.691l-4.762-15.691h2.85L388.59,187.057z"/>
	<path class="st0" d="M410.9,191.881h-2.506l0.314-2.036h-0.062c-1.535,1.63-3.383,2.443-5.45,2.443
		c-4.323,0-6.484-3.664-5.826-7.737c0.658-4.197,3.915-7.799,8.332-7.799c2.005,0,3.664,0.94,4.635,2.506h0.062l0.314-2.098h2.506
		L410.9,191.881z M399.969,184.364c-0.471,2.882,0.814,5.607,3.947,5.607c3.226,0,5.324-2.6,5.795-5.575
		c0.469-2.944-1.002-5.325-4.104-5.325C402.694,179.07,400.407,181.608,399.969,184.364z"/>
	<path class="st0" d="M420.086,178.945h0.062c1.284-1.41,2.757-2.193,4.574-2.193c4.072,0,4.541,2.944,3.977,6.39l-1.378,8.739
		h-2.506l1.316-8.3c0.376-2.381,0.532-4.51-2.381-4.51c-3.446,0-4.166,3.194-4.605,5.826l-1.095,6.984h-2.506l2.317-14.721h2.506
		L420.086,178.945z"/>
	<path class="st0" d="M441.587,184.551c0.689-4.322,4.667-7.799,8.989-7.799c4.323,0,7.173,3.477,6.484,7.799
		c-0.69,4.323-4.667,7.737-8.958,7.737C443.811,192.288,440.899,188.874,441.587,184.551z M444.093,184.521
		c-0.469,3.007,1.284,5.45,4.385,5.45c3.1,0,5.606-2.443,6.076-5.45c0.469-2.976-1.254-5.45-4.354-5.45
		C447.1,179.07,444.562,181.544,444.093,184.521z"/>
	<path class="st0" d="M463.773,190.503c-0.157,0.972-1.065,1.785-2.036,1.785c-0.97,0-1.628-0.814-1.472-1.785
		c0.157-0.94,1.065-1.723,2.036-1.723C463.272,188.78,463.93,189.563,463.773,190.503z"/>
	<path class="st0" d="M482.446,191.881h-2.506l0.314-2.036h-0.062c-1.535,1.63-3.383,2.443-5.45,2.443
		c-4.323,0-6.484-3.664-5.826-7.737c0.658-4.197,3.915-7.799,8.332-7.799c2.005,0,3.664,0.94,4.635,2.506h0.062l0.314-2.098h2.506
		L482.446,191.881z M471.515,184.364c-0.471,2.882,0.814,5.607,3.947,5.607c3.226,0,5.324-2.6,5.795-5.575
		c0.469-2.944-1.002-5.325-4.104-5.325C474.24,179.07,471.954,181.608,471.515,184.364z"/>
	<path class="st0" d="M491.508,190.503c-0.157,0.972-1.065,1.785-2.035,1.785c-0.972,0-1.63-0.814-1.473-1.785
		c0.157-0.94,1.065-1.723,2.036-1.723C491.007,188.78,491.665,189.563,491.508,190.503z"/>
	<path class="st0" d="M510.969,178.757h0.062c1.002-1.222,2.381-2.005,3.884-2.005c1.723,0,3.132,0.909,3.665,2.443
		c1.127-1.628,3.038-2.443,4.823-2.443c3.759,0,4.198,3.069,3.697,6.171l-1.41,8.958h-2.506l1.347-8.552
		c0.314-1.91,0.565-4.259-2.005-4.259c-2.881,0-3.633,2.788-4.009,5.012l-1.222,7.799h-2.505l1.315-8.363
		c0.282-1.817,0.501-4.448-1.91-4.448c-2.944,0-3.727,2.975-4.104,5.199l-1.19,7.612h-2.506l2.317-14.721h2.506L510.969,178.757z"/>
	<path class="st0" d="M532.813,185.052c-0.407,2.725,1.19,4.918,4.041,4.918c2.13,0,3.695-1.284,4.948-3.039l1.942,1.222
		c-1.816,2.631-4.448,4.134-7.455,4.134c-4.384,0-6.671-3.351-6.014-7.58c0.69-4.354,3.822-7.956,8.427-7.956
		c4.73,0,6.608,3.916,5.668,8.3H532.813z M542.053,182.923c0-2.13-1.503-3.852-3.697-3.852c-2.16,0-4.447,1.723-5.105,3.852H542.053
		z"/>
	<path class="st0" d="M549.36,191.881h-2.506l1.973-12.404h-1.534l0.344-2.317h1.535l0.845-5.293h2.506l-0.845,5.293h2.631
		l-0.344,2.317h-2.632L549.36,191.881z"/>
	<path class="st0" d="M567.687,191.881h-2.506l0.314-2.036h-0.062c-1.535,1.63-3.383,2.443-5.45,2.443
		c-4.323,0-6.484-3.664-5.826-7.737c0.658-4.197,3.915-7.799,8.332-7.799c2.005,0,3.665,0.94,4.635,2.506h0.062l0.314-2.098h2.506
		L567.687,191.881z M556.756,184.364c-0.471,2.882,0.814,5.607,3.947,5.607c3.226,0,5.324-2.6,5.795-5.575
		c0.469-2.944-1.002-5.325-4.104-5.325C559.481,179.07,557.195,181.608,556.756,184.364z"/>
	<path class="st0" d="M574.776,191.881h-2.506l4.102-25.841h2.506L574.776,191.881z"/>
	<path class="st0" d="M581.795,185.052c-0.407,2.725,1.19,4.918,4.04,4.918c2.131,0,3.697-1.284,4.949-3.039l1.942,1.222
		c-1.816,2.631-4.448,4.134-7.455,4.134c-4.384,0-6.671-3.351-6.014-7.58c0.69-4.354,3.822-7.956,8.427-7.956
		c4.73,0,6.608,3.916,5.67,8.3H581.795z M591.035,182.923c0-2.13-1.503-3.852-3.695-3.852c-2.161,0-4.448,1.723-5.106,3.852H591.035
		z"/>
	<path class="st0" d="M598.217,178.945h0.062c1.033-1.41,2.381-2.193,4.197-2.193c4.072,0,5.012,2.944,5.012,6.39v8.739h-2.506v-8.3
		c0-2.381-0.187-4.51-3.1-4.51c-3.446,0-3.665,3.194-3.665,5.826v6.984h-2.506V177.16h2.506V178.945z"/>
	<path class="st0" d="M64.038,227.045v2.443H48.752l11.057-13.062c0.94-1.127,1.597-2.411,1.597-3.945
		c0-2.632-2.13-4.574-4.698-4.574c-2.85,0-4.698,2.099-4.762,4.856h-2.631c0.094-4.135,3.132-7.298,7.298-7.298
		c3.947,0,7.424,2.881,7.424,6.984c0,1.91-0.565,3.571-1.787,4.98l-8.174,9.616H64.038z"/>
	<path class="st0" d="M73.351,228.11c0,0.972-0.783,1.785-1.753,1.785c-0.972,0-1.755-0.814-1.755-1.785
		c0-0.94,0.783-1.723,1.755-1.723C72.568,226.387,73.351,227.17,73.351,228.11z"/>
	<path class="st0" d="M152.136,223.881l9.584-18.01h2.851l-13.531,25.026l-5.639-25.026h2.85L152.136,223.881z"/>
	<path class="st0" d="M163.264,222.659c-0.407,2.725,1.19,4.918,4.041,4.918c2.13,0,3.696-1.284,4.948-3.039l1.942,1.222
		c-1.816,2.631-4.448,4.134-7.455,4.134c-4.384,0-6.671-3.351-6.014-7.58c0.69-4.354,3.822-7.956,8.427-7.956
		c4.73,0,6.608,3.916,5.668,8.3H163.264z M172.504,220.53c0-2.13-1.503-3.852-3.697-3.852c-2.16,0-4.447,1.723-5.105,3.852H172.504z
		"/>
	<path class="st0" d="M181.628,216.364h0.062c1.065-1.159,1.973-2.005,3.601-2.005c0.847,0,1.473,0.282,2.131,0.69l-1.566,2.286
		c-0.439-0.344-0.72-0.658-1.378-0.658c-2.757,0-3.446,3.539-3.759,5.45l-1.159,7.36h-2.505l2.317-14.721h2.506L181.628,216.364z"/>
	<path class="st0" d="M191.657,203.647h2.506l-2.098,13.217h0.062c1.44-1.566,3.444-2.506,5.449-2.506
		c4.385,0,6.484,3.602,5.826,7.769c-0.658,4.102-3.947,7.767-8.268,7.767c-2.036,0-3.759-0.845-4.699-2.443h-0.062l-0.312,2.036
		h-2.507L191.657,203.647z M191.125,221.971c-0.471,2.882,0.814,5.607,3.947,5.607c3.225,0,5.324-2.6,5.795-5.575
		c0.469-2.944-1.002-5.325-4.104-5.325C193.85,216.677,191.562,219.214,191.125,221.971z"/>
	<path class="st0" d="M208.737,229.488h-2.506l2.318-14.721h2.506L208.737,229.488z M212.464,209.223
		c-0.157,1.002-1.097,1.785-2.067,1.785s-1.66-0.783-1.503-1.785c0.157-0.97,1.127-1.785,2.099-1.785
		C211.963,207.437,212.621,208.252,212.464,209.223z"/>
	<path class="st0" d="M218.514,216.552h0.062c1.285-1.41,2.757-2.193,4.574-2.193c4.072,0,4.541,2.944,3.977,6.39l-1.378,8.739
		h-2.506l1.316-8.3c0.376-2.381,0.532-4.51-2.381-4.51c-3.446,0-4.166,3.194-4.605,5.826l-1.095,6.984h-2.506l2.317-14.721h2.506
		L218.514,216.552z"/>
	<path class="st0" d="M241.764,227.452h-0.062c-1.473,1.598-3.446,2.443-5.45,2.443c-4.323,0-6.484-3.665-5.826-7.737
		c0.658-4.197,3.915-7.799,8.332-7.799c1.973,0,3.696,0.94,4.635,2.506h0.062l2.099-13.217h2.506l-4.104,25.841h-2.506
		L241.764,227.452z M233.025,221.971c-0.471,2.882,0.814,5.607,3.947,5.607c3.226,0,5.324-2.6,5.795-5.575
		c0.469-2.944-1.002-5.325-4.104-5.325C235.751,216.677,233.464,219.214,233.025,221.971z"/>
	<path class="st0" d="M250.951,222.659c-0.407,2.725,1.19,4.918,4.04,4.918c2.131,0,3.697-1.284,4.949-3.039l1.942,1.222
		c-1.816,2.631-4.448,4.134-7.455,4.134c-4.384,0-6.671-3.351-6.014-7.58c0.69-4.354,3.822-7.956,8.427-7.956
		c4.73,0,6.608,3.916,5.67,8.3H250.951z M260.191,220.53c0-2.13-1.503-3.852-3.696-3.852c-2.161,0-4.448,1.723-5.106,3.852H260.191z
		"/>
	<path class="st0" d="M269.408,216.552h0.062c1.284-1.41,2.757-2.193,4.574-2.193c4.072,0,4.541,2.944,3.977,6.39l-1.378,8.739
		h-2.506l1.316-8.3c0.376-2.381,0.532-4.51-2.381-4.51c-3.446,0-4.166,3.194-4.605,5.826l-1.095,6.984h-2.506l2.317-14.721h2.506
		L269.408,216.552z"/>
</g>
<polygon class="st0" points="78.319,255.029 0,255.029 0,0 78.319,0 78.319,3.657 3.657,3.657 3.657,251.372 78.319,251.372 "/>
<polygon class="st0" points="654.071,255.029 575.75,255.029 575.75,251.372 650.413,251.372 650.413,3.657 575.75,3.657 575.75,0 
	654.071,0 "/>
</svg>