<!-- Generator: Adobe Illustrator 22.0.1, SVG Export Plug-In  -->
<svg version="1.1"
	 xmlns="http://www.w3.org/2000/svg" xmlns:xlink="http://www.w3.org/1999/xlink" xmlns:a="http://ns.adobe.com/AdobeSVGViewerExtensions/3.0/"
	 x="0px" y="0px" width="75.299px" height="49.07px" viewBox="0 0 75.299 49.07" style="enable-background:new 0 0 75.299 49.07;"
	 xml:space="preserve">
<style type="text/css">
	.st0{fill:#FFFFFF;}
</style>
<defs>
</defs>
<g>
	<path class="st0" d="M2.126,0h71.047c1.174,0,2.126,0.952,2.126,2.126v44.818c0,1.174-0.952,2.126-2.126,2.126H2.126
		C0.952,49.07,0,48.118,0,46.944V2.126C0,0.952,0.952,0,2.126,0L2.126,0z M71.047,4.252H4.252v40.566h66.795V4.252L71.047,4.252z"/>
	<path class="st0" d="M3.455,0.473l34.195,27.491L71.844,0.473l2.658,3.305L39.004,32.317c-0.76,0.632-1.884,0.664-2.684,0.021
		L0.797,3.779L3.455,0.473L3.455,0.473z"/>
	<polygon class="st0" points="0.831,45.266 29.191,23.249 31.782,26.604 3.421,48.622 0.831,45.266 	"/>
	<polygon class="st0" points="71.878,48.622 43.517,26.604 46.107,23.249 74.469,45.266 71.878,48.622 	"/>
</g>
</svg>