<!-- Generator: Adobe Illustrator 22.0.1, SVG Export Plug-In  -->
<svg version="1.1"
	 xmlns="http://www.w3.org/2000/svg" xmlns:xlink="http://www.w3.org/1999/xlink" xmlns:a="http://ns.adobe.com/AdobeSVGViewerExtensions/3.0/"
	 x="0px" y="0px" width="601.369px" height="184.836px" viewBox="0 0 601.369 184.836"
	 style="enable-background:new 0 0 601.369 184.836;" xml:space="preserve">
<style type="text/css">
	.st0{fill:#A1A5A7;}
	.st1{fill:#DBDCDE;}
	.st2{fill:#001450;}
	.st3{fill:#FFFFFF;}
</style>
<defs>
</defs>
<g id="Laag_1_kopie">
	<g>
		<path class="st0" d="M581.721,116.075v-0.008H273.943v68.747l307.958-0.027c10.65-0.83,19.269-15.748,19.465-34.127
			C601.567,131.759,592.786,116.333,581.721,116.075z"/>
		<polygon class="st0" points="242.187,184.817 242.187,116.067 186.9,116.067 186.9,156.313 229.28,156.313 229.28,184.818 		"/>
	</g>
	<rect x="142.419" y="116.067" class="st0" width="12.723" height="68.757"/>
	<polygon class="st0" points="115.578,184.828 115.578,127.318 102.812,184.829 	"/>
	<polygon class="st0" points="90.745,133.33 94.578,116.067 86.884,116.067 	"/>
	<path class="st0" d="M38.967,116.067H19.493h-0.024h-0.21v0.074c-10.553,1.009-19.061,15.844-19.255,34.102
		c-0.199,18.678,8.375,33.957,19.255,34.564v0.029l0.527,0c0,0,0.001,0,0.001,0v0l19.182-0.002V116.067z"/>
	<polygon class="st0" points="78.543,184.831 65.809,127.355 65.809,184.832 	"/>
	<path class="st1" d="M585.935,119.049c7.749,4.589,14.09,15.712,13.291,32.73c-0.444,9.461-3.215,17.099-7.065,23.55
		c-1.957,3.277-5.367,7.73-11.181,7.579c-1.635-0.045-3.782-0.121-5.418-1.01c-9.352-5.084-12.869-16.262-12.946-30.945
		c-0.051-9.451,2.982-18.211,6.832-24.66c1.956-3.279,6.072-7.927,11.668-8.27C582.753,117.922,584.333,118.104,585.935,119.049
		L585.935,119.049z"/>
	<path class="st2" d="M319.763,171.728h-2.85v-13.1h2.64v1.863c0.452-0.873,0.857-1.451,1.215-1.74
		c0.358-0.287,0.771-0.432,1.24-0.432c0.649,0,1.271,0.219,1.863,0.654l-0.889,3.021c-0.469-0.377-0.913-0.568-1.332-0.568
		c-0.396,0-0.743,0.148-1.043,0.439c-0.3,0.291-0.516,0.82-0.646,1.588c-0.132,0.766-0.198,2.174-0.198,4.223V171.728z"/>
	<path class="st2" d="M328.064,171.728l-4.354-13.1h2.975l2.028,6.686l0.591,2.232l0.601-2.232l2.058-6.686h2.912l-4.282,13.1
		H328.064z"/>
	<path class="st2" d="M335.615,168.004l2.85-0.529c0.246,1.371,1.012,2.059,2.294,2.059c0.684,0,1.193-0.131,1.529-0.395
		c0.338-0.264,0.506-0.604,0.506-1.025c0-0.287-0.073-0.514-0.221-0.678c-0.157-0.164-0.467-0.309-0.929-0.432
		c-2.334-0.621-3.817-1.211-4.45-1.771c-0.79-0.701-1.184-1.66-1.184-2.881c0-1.221,0.386-2.197,1.158-2.932
		c0.773-0.732,1.896-1.1,3.369-1.1c1.406,0,2.475,0.275,3.206,0.82c0.731,0.547,1.246,1.43,1.542,2.646l-2.676,0.604
		c-0.239-1.051-0.914-1.578-2.023-1.578c-0.699,0-1.197,0.1-1.493,0.303c-0.296,0.203-0.443,0.465-0.443,0.785
		c0,0.287,0.135,0.527,0.406,0.717c0.271,0.197,1.113,0.496,2.527,0.895c1.587,0.451,2.664,0.992,3.232,1.627
		c0.56,0.633,0.84,1.477,0.84,2.529c0,1.268-0.434,2.312-1.301,3.135c-0.868,0.824-2.067,1.234-3.597,1.234
		c-1.389,0-2.523-0.342-3.404-1.029C336.474,170.32,335.894,169.318,335.615,168.004z"/>
	<path class="st2" d="M354.193,171.422v-17.86h2.257v17.86H354.193z"/>
	<path class="st2" d="M364.467,168.004l2.851-0.529c0.247,1.371,1.012,2.059,2.294,2.059c0.683,0,1.193-0.131,1.53-0.395
		c0.337-0.264,0.505-0.604,0.505-1.025c0-0.287-0.074-0.514-0.222-0.678c-0.156-0.164-0.466-0.309-0.929-0.432
		c-2.333-0.621-3.816-1.211-4.45-1.771c-0.789-0.701-1.184-1.66-1.184-2.881c0-1.221,0.386-2.197,1.159-2.932
		c0.773-0.732,1.896-1.1,3.368-1.1c1.406,0,2.475,0.275,3.207,0.82c0.731,0.547,1.245,1.43,1.542,2.646l-2.677,0.604
		c-0.239-1.051-0.913-1.578-2.022-1.578c-0.699,0-1.197,0.1-1.494,0.303c-0.296,0.203-0.443,0.465-0.443,0.785
		c0,0.287,0.136,0.527,0.406,0.717c0.272,0.197,1.114,0.496,2.528,0.895c1.586,0.451,2.664,0.992,3.232,1.627
		c0.56,0.633,0.841,1.477,0.841,2.529c0,1.268-0.434,2.312-1.302,3.135c-0.867,0.824-2.065,1.234-3.596,1.234
		c-1.39,0-2.524-0.342-3.404-1.029C365.328,170.32,364.748,169.318,364.467,168.004z"/>
	<path class="st2" d="M381.898,158.629v2.764h-1.937v5.287c0,1.144,0.028,1.808,0.086,1.99c0.115,0.33,0.35,0.494,0.703,0.494
		c0.264,0,0.642-0.111,1.136-0.334l0.246,2.689c-0.658,0.346-1.401,0.518-2.232,0.518c-0.724,0-1.304-0.172-1.739-0.518
		c-0.437-0.346-0.729-0.844-0.876-1.496c-0.115-0.477-0.173-1.447-0.173-2.914v-5.717h-1.308v-2.764h1.308v-2.604l2.85-2.023v4.627
		H381.898z"/>
	<path class="st2" d="M386.006,162.613l-2.578-0.566c0.312-1.326,0.828-2.277,1.548-2.855c0.72-0.582,1.754-0.871,3.103-0.871
		c1.201,0,2.117,0.17,2.751,0.506c0.633,0.338,1.085,0.797,1.356,1.377c0.272,0.58,0.408,1.637,0.408,3.168l-0.025,4.049
		c0,1.137,0.045,1.982,0.136,2.537c0.091,0.557,0.259,1.146,0.506,1.771h-2.812l-0.37-1.43c-0.485,0.576-1.006,1.01-1.56,1.301
		c-0.556,0.291-1.146,0.438-1.771,0.438c-1.045,0-1.899-0.352-2.565-1.057c-0.666-0.703-0.999-1.639-0.999-2.809
		c0-0.742,0.136-1.389,0.406-1.939c0.272-0.551,0.654-0.992,1.147-1.322c0.494-0.33,1.283-0.621,2.369-0.877
		c1.315-0.305,2.232-0.588,2.75-0.853c0-0.727-0.051-1.203-0.153-1.432c-0.104-0.229-0.293-0.414-0.567-0.559
		c-0.276-0.145-0.665-0.217-1.167-0.217c-0.51,0-0.91,0.115-1.202,0.346C386.423,161.549,386.186,161.98,386.006,162.613z
		 M389.805,165.439c-0.361,0.146-0.925,0.32-1.69,0.52c-0.881,0.23-1.456,0.486-1.728,0.766c-0.271,0.281-0.407,0.643-0.407,1.09
		c0,0.502,0.15,0.924,0.45,1.268c0.301,0.342,0.677,0.514,1.13,0.514c0.402,0,0.802-0.139,1.196-0.416
		c0.395-0.275,0.667-0.604,0.819-0.983c0.152-0.379,0.229-1.068,0.229-2.066V165.439z"/>
	<path class="st2" d="M397.528,162.613l-2.578-0.566c0.313-1.326,0.828-2.277,1.548-2.855c0.72-0.582,1.754-0.871,3.103-0.871
		c1.201,0,2.117,0.17,2.75,0.506c0.634,0.338,1.086,0.797,1.357,1.377c0.271,0.58,0.407,1.637,0.407,3.168l-0.025,4.049
		c0,1.137,0.046,1.982,0.137,2.537c0.09,0.557,0.259,1.146,0.506,1.771h-2.812l-0.37-1.43c-0.486,0.576-1.006,1.01-1.561,1.301
		c-0.555,0.291-1.145,0.438-1.77,0.438c-1.045,0-1.9-0.352-2.566-1.057c-0.666-0.703-0.999-1.639-0.999-2.809
		c0-0.742,0.135-1.389,0.406-1.939c0.272-0.551,0.654-0.992,1.147-1.322c0.494-0.33,1.283-0.621,2.368-0.877
		c1.315-0.305,2.233-0.588,2.752-0.853c0-0.727-0.052-1.203-0.154-1.432c-0.103-0.229-0.293-0.414-0.568-0.559
		s-0.664-0.217-1.166-0.217c-0.51,0-0.91,0.115-1.202,0.346C397.945,161.549,397.708,161.98,397.528,162.613z M401.328,165.439
		c-0.363,0.146-0.926,0.32-1.69,0.52c-0.881,0.23-1.456,0.486-1.728,0.766c-0.271,0.281-0.407,0.643-0.407,1.09
		c0,0.502,0.15,0.924,0.45,1.268c0.301,0.342,0.677,0.514,1.13,0.514c0.402,0,0.801-0.139,1.195-0.416
		c0.396-0.275,0.669-0.604,0.82-0.983c0.152-0.379,0.229-1.068,0.229-2.066V165.439z"/>
	<path class="st2" d="M406.927,171.728v-18.082h2.85v18.082H406.927z"/>
	<path class="st2" d="M418.746,171.607v-18.046h2.257v18.046H418.746z"/>
	<path class="st2" d="M432.141,162.613l-2.578-0.566c0.312-1.326,0.828-2.277,1.548-2.855c0.72-0.582,1.754-0.871,3.103-0.871
		c1.201,0,2.117,0.17,2.75,0.506c0.635,0.338,1.087,0.797,1.357,1.377c0.272,0.58,0.407,1.637,0.407,3.168l-0.024,4.049
		c0,1.137,0.045,1.982,0.136,2.537c0.09,0.557,0.26,1.146,0.506,1.771h-2.812l-0.37-1.43c-0.486,0.576-1.006,1.01-1.56,1.301
		c-0.555,0.291-1.146,0.438-1.77,0.438c-1.045,0-1.9-0.352-2.566-1.057c-0.666-0.703-0.999-1.639-0.999-2.809
		c0-0.742,0.136-1.389,0.407-1.939c0.271-0.551,0.653-0.992,1.147-1.322c0.493-0.33,1.282-0.621,2.368-0.877
		c1.315-0.305,2.232-0.588,2.751-0.853c0-0.727-0.052-1.203-0.154-1.432c-0.104-0.229-0.293-0.414-0.568-0.559
		c-0.274-0.145-0.663-0.217-1.165-0.217c-0.51,0-0.911,0.115-1.203,0.346C432.558,161.549,432.322,161.98,432.141,162.613z
		 M435.941,165.439c-0.362,0.146-0.926,0.32-1.69,0.52c-0.881,0.23-1.456,0.486-1.728,0.766c-0.271,0.281-0.406,0.643-0.406,1.09
		c0,0.502,0.149,0.924,0.45,1.268c0.3,0.342,0.676,0.514,1.129,0.514c0.402,0,0.801-0.139,1.196-0.416
		c0.395-0.275,0.667-0.604,0.82-0.983c0.151-0.379,0.229-1.068,0.229-2.066V165.439z"/>
	<path class="st2" d="M441.54,171.728v-18.082h2.85v18.082H441.54z"/>
	<path class="st2" d="M454.345,171.728v-1.959c-0.395,0.711-0.911,1.266-1.552,1.668c-0.64,0.398-1.31,0.6-2.007,0.6
		c-0.706,0-1.339-0.184-1.897-0.555c-0.558-0.371-0.975-0.896-1.25-1.58c-0.274-0.684-0.412-1.676-0.412-2.977v-8.297h2.849v6.02
		c0,1.719,0.044,2.811,0.129,3.275c0.087,0.465,0.277,0.824,0.572,1.08c0.296,0.254,0.651,0.381,1.07,0.381
		c0.475,0,0.914-0.166,1.316-0.498c0.401-0.334,0.666-0.762,0.793-1.283c0.127-0.523,0.189-1.672,0.189-3.447v-5.527h2.851v13.1
		H454.345z"/>
	<path class="st2" d="M459.737,158.629h2.614v1.789c0.469-0.699,0.983-1.223,1.543-1.572c0.559-0.35,1.163-0.525,1.813-0.525
		c0.689,0,1.288,0.174,1.794,0.518c0.506,0.346,0.919,0.867,1.239,1.568c0.478-0.701,0.989-1.223,1.536-1.568
		c0.547-0.344,1.129-0.518,1.746-0.518c0.732,0,1.362,0.176,1.893,0.525c0.53,0.35,0.933,0.85,1.209,1.5
		c0.275,0.65,0.413,1.65,0.413,3v8.383h-2.85v-7.496c0-1.309-0.115-2.178-0.346-2.611c-0.23-0.432-0.616-0.648-1.159-0.648
		c-0.634,0-1.144,0.303-1.529,0.908c-0.387,0.605-0.58,1.789-0.58,3.551v6.297h-2.85v-7.188c0-1.424-0.078-2.342-0.234-2.752
		c-0.206-0.545-0.621-0.816-1.246-0.816c-0.419,0-0.806,0.141-1.16,0.42c-0.353,0.281-0.608,0.689-0.765,1.229
		c-0.156,0.539-0.233,1.451-0.233,2.736v6.371h-2.85V158.629z"/>
	<path class="st2" d="M478.375,156.851v-3.205h2.85v3.205H478.375z M478.375,171.728v-13.1h2.85v13.1H478.375z"/>
	<path class="st2" d="M493.906,171.728h-2.85v-6.693c0-1.342-0.053-2.234-0.16-2.68c-0.106-0.445-0.307-0.785-0.599-1.025
		c-0.292-0.238-0.622-0.357-0.993-0.357c-0.477,0-0.908,0.154-1.294,0.463c-0.388,0.309-0.658,0.736-0.815,1.279
		c-0.155,0.543-0.233,1.566-0.233,3.074v5.939h-2.851v-13.1h2.641v1.912c0.469-0.74,0.997-1.295,1.585-1.664
		c0.588-0.371,1.24-0.557,1.955-0.557c0.831,0,1.532,0.217,2.104,0.648c0.571,0.432,0.966,0.988,1.184,1.668
		c0.219,0.678,0.327,1.66,0.327,2.943V171.728z"/>
	<path class="st2" d="M496.792,156.851v-3.205h2.85v3.205H496.792z M496.792,171.728v-13.1h2.85v13.1H496.792z"/>
	<path class="st2" d="M509.597,171.728v-1.959c-0.395,0.711-0.911,1.266-1.552,1.668c-0.641,0.398-1.31,0.6-2.007,0.6
		c-0.706,0-1.339-0.184-1.896-0.555c-0.559-0.371-0.975-0.896-1.25-1.58c-0.275-0.684-0.413-1.676-0.413-2.977v-8.297h2.85v6.02
		c0,1.719,0.043,2.811,0.129,3.275c0.087,0.465,0.277,0.824,0.572,1.08c0.295,0.254,0.651,0.381,1.07,0.381
		c0.476,0,0.914-0.166,1.316-0.498c0.4-0.334,0.665-0.762,0.793-1.283c0.127-0.523,0.19-1.672,0.19-3.447v-5.527h2.85v13.1H509.597z
		"/>
	<path class="st2" d="M514.988,158.629h2.615v1.789c0.469-0.699,0.982-1.223,1.542-1.572c0.56-0.35,1.163-0.525,1.813-0.525
		c0.69,0,1.289,0.174,1.794,0.518c0.506,0.346,0.92,0.867,1.24,1.568c0.477-0.701,0.989-1.223,1.536-1.568
		c0.546-0.344,1.129-0.518,1.745-0.518c0.732,0,1.363,0.176,1.894,0.525c0.53,0.35,0.934,0.85,1.209,1.5
		c0.275,0.65,0.413,1.65,0.413,3v8.383h-2.85v-7.496c0-1.309-0.115-2.178-0.345-2.611c-0.231-0.432-0.617-0.648-1.16-0.648
		c-0.634,0-1.144,0.303-1.53,0.908c-0.386,0.605-0.579,1.789-0.579,3.551v6.297h-2.85v-7.188c0-1.424-0.078-2.342-0.234-2.752
		c-0.206-0.545-0.621-0.816-1.246-0.816c-0.419,0-0.806,0.141-1.159,0.42c-0.354,0.281-0.608,0.689-0.765,1.229
		c-0.156,0.539-0.233,1.451-0.233,2.736v6.371h-2.851V158.629z"/>
	<g>
		<path class="st3" d="M316.58,147.355v-18.521h4.585l2.762,12.646l2.739-12.646h4.606v18.521h-2.854v-14.592l-3.028,14.592h-2.949
			l-3.006-14.592v14.592H316.58z"/>
		<path class="st3" d="M340.672,143.098l2.893,0.594c-0.388,1.348-0.991,2.348-1.809,3.002c-0.818,0.652-1.814,0.979-2.985,0.979
			c-1.628,0-2.884-0.545-3.77-1.633c-1.046-1.266-1.568-3.037-1.568-5.316c0-2.244,0.526-4.041,1.579-5.391
			c0.893-1.139,2.047-1.709,3.462-1.709c1.574,0,2.809,0.582,3.701,1.746c1.027,1.332,1.542,3.299,1.542,5.896l-0.014,0.404h-7.289
			c0.017,1.066,0.256,1.891,0.716,2.473c0.46,0.584,1.016,0.877,1.667,0.877C339.734,145.019,340.36,144.379,340.672,143.098z
			 M340.824,139.498c-0.025-1.049-0.249-1.838-0.67-2.367c-0.421-0.527-0.922-0.791-1.503-0.791c-0.615,0-1.133,0.273-1.554,0.824
			c-0.431,0.559-0.641,1.336-0.632,2.334H340.824z"/>
		<path class="st3" d="M351.107,133.939v2.83h-1.983v5.414c0,1.174,0.029,1.854,0.089,2.037c0.117,0.338,0.357,0.508,0.72,0.508
			c0.27,0,0.657-0.113,1.162-0.342l0.253,2.754c-0.674,0.354-1.436,0.531-2.286,0.531c-0.741,0-1.335-0.178-1.781-0.531
			c-0.447-0.354-0.746-0.865-0.897-1.531c-0.118-0.488-0.177-1.484-0.177-2.984v-5.855h-1.339v-2.83h1.339v-2.666l2.918-2.072v4.738
			H351.107z"/>
		<path class="st3" d="M355.315,138.019l-2.641-0.582c0.32-1.355,0.849-2.33,1.585-2.924c0.737-0.594,1.796-0.891,3.178-0.891
			c1.229,0,2.169,0.172,2.817,0.518c0.648,0.346,1.111,0.816,1.39,1.41c0.278,0.596,0.417,1.676,0.417,3.244l-0.025,4.148
			c0,1.162,0.046,2.029,0.139,2.598c0.093,0.568,0.266,1.174,0.519,1.814h-2.881l-0.379-1.465c-0.497,0.59-1.029,1.033-1.599,1.332
			c-0.568,0.299-1.173,0.449-1.812,0.449c-1.069,0-1.945-0.361-2.628-1.082c-0.682-0.721-1.023-1.68-1.023-2.879
			c0-0.758,0.14-1.42,0.417-1.986c0.278-0.564,0.67-1.016,1.175-1.354c0.506-0.336,1.315-0.637,2.426-0.898
			c1.348-0.311,2.287-0.602,2.817-0.871c0-0.746-0.053-1.236-0.158-1.469c-0.105-0.232-0.299-0.424-0.58-0.57
			c-0.283-0.148-0.681-0.223-1.194-0.223c-0.522,0-0.933,0.117-1.232,0.354C355.742,136.93,355.499,137.371,355.315,138.019z
			 M359.206,140.912c-0.371,0.152-0.947,0.33-1.73,0.533c-0.901,0.236-1.491,0.498-1.769,0.785
			c-0.278,0.287-0.417,0.658-0.417,1.115c0,0.516,0.153,0.947,0.461,1.299c0.308,0.35,0.692,0.525,1.156,0.525
			c0.412,0,0.82-0.141,1.225-0.424s0.685-0.619,0.841-1.008c0.155-0.389,0.233-1.094,0.233-2.117V140.912z"/>
		<path class="st3" d="M367.114,138.019l-2.64-0.582c0.319-1.355,0.849-2.33,1.585-2.924c0.737-0.594,1.796-0.891,3.178-0.891
			c1.229,0,2.168,0.172,2.817,0.518c0.648,0.346,1.111,0.816,1.39,1.41c0.278,0.596,0.417,1.676,0.417,3.244l-0.025,4.148
			c0,1.162,0.046,2.029,0.139,2.598c0.093,0.568,0.266,1.174,0.519,1.814h-2.881l-0.379-1.465c-0.497,0.59-1.029,1.033-1.599,1.332
			c-0.568,0.299-1.173,0.449-1.812,0.449c-1.069,0-1.945-0.361-2.628-1.082c-0.682-0.721-1.023-1.68-1.023-2.879
			c0-0.758,0.139-1.42,0.417-1.986c0.278-0.564,0.67-1.016,1.175-1.354c0.506-0.336,1.314-0.637,2.426-0.898
			c1.348-0.311,2.287-0.602,2.817-0.871c0-0.746-0.053-1.236-0.158-1.469c-0.105-0.232-0.299-0.424-0.581-0.57
			c-0.282-0.148-0.68-0.223-1.193-0.223c-0.522,0-0.934,0.117-1.233,0.354C367.541,136.93,367.299,137.371,367.114,138.019z
			 M371.005,140.912c-0.371,0.152-0.947,0.33-1.73,0.533c-0.901,0.236-1.491,0.498-1.768,0.785
			c-0.278,0.287-0.418,0.658-0.418,1.115c0,0.516,0.154,0.947,0.462,1.299c0.308,0.35,0.692,0.525,1.155,0.525
			c0.413,0,0.821-0.141,1.226-0.424s0.685-0.619,0.841-1.008c0.155-0.389,0.233-1.094,0.233-2.117V140.912z"/>
		<path class="st3" d="M376.741,147.355v-18.521h2.919v18.521H376.741z"/>
		<path class="st3" d="M401.996,145.092l-1.768,2.744c-0.859-0.508-1.689-1.221-2.488-2.135c-0.633,0.699-1.296,1.201-1.99,1.51
			c-0.695,0.307-1.502,0.461-2.42,0.461c-1.827,0-3.182-0.557-4.061-1.666c-0.88-1.111-1.32-2.357-1.32-3.738
			c0-2.381,1.154-4.271,3.462-5.668c-1.036-1.482-1.554-2.836-1.554-4.066c0-1.186,0.387-2.152,1.162-2.896
			c0.774-0.746,1.803-1.117,3.082-1.117c1.239,0,2.247,0.389,3.026,1.166c0.779,0.777,1.168,1.789,1.168,3.033
			c0,0.799-0.193,1.533-0.583,2.201c-0.389,0.668-1.109,1.412-2.163,2.227l2.09,3.404c0.236-0.523,0.451-1.225,0.644-2.107
			l2.628,0.732c-0.404,1.805-0.843,3.076-1.314,3.818c0.32,0.361,0.739,0.768,1.257,1.213
			C401.371,144.654,401.751,144.949,401.996,145.092z M392.922,138.875c-0.648,0.402-1.142,0.893-1.482,1.469
			c-0.341,0.576-0.512,1.18-0.512,1.811c0,0.791,0.213,1.42,0.639,1.887c0.425,0.467,0.971,0.699,1.636,0.699
			c0.867,0,1.765-0.471,2.691-1.412L392.922,138.875z M394.078,135.023l0.782-0.732c0.58-0.547,0.869-1.086,0.869-1.617
			c0-0.488-0.146-0.885-0.441-1.193c-0.295-0.307-0.666-0.461-1.112-0.461c-0.439,0-0.794,0.135-1.067,0.404
			c-0.273,0.27-0.41,0.598-0.41,0.986c0,0.445,0.22,0.98,0.658,1.604L394.078,135.023z"/>
		<path class="st3" d="M409.854,147.355v-18.369h3.058v15.236h7.631v3.133H409.854z"/>
		<path class="st3" d="M424.888,138.019l-2.641-0.582c0.32-1.355,0.849-2.33,1.586-2.924c0.736-0.594,1.796-0.891,3.177-0.891
			c1.229,0,2.169,0.172,2.818,0.518c0.647,0.346,1.111,0.816,1.389,1.41c0.278,0.596,0.417,1.676,0.417,3.244l-0.025,4.148
			c0,1.162,0.047,2.029,0.14,2.598c0.093,0.568,0.265,1.174,0.518,1.814h-2.88l-0.38-1.465c-0.496,0.59-1.029,1.033-1.598,1.332
			c-0.568,0.299-1.173,0.449-1.814,0.449c-1.069,0-1.945-0.361-2.627-1.082c-0.683-0.721-1.023-1.68-1.023-2.879
			c0-0.758,0.139-1.42,0.417-1.986c0.277-0.564,0.669-1.016,1.175-1.354c0.505-0.336,1.314-0.637,2.425-0.898
			c1.348-0.311,2.287-0.602,2.818-0.871c0-0.746-0.054-1.236-0.158-1.469c-0.105-0.232-0.3-0.424-0.581-0.57
			c-0.282-0.148-0.681-0.223-1.194-0.223c-0.523,0-0.933,0.117-1.231,0.354C425.315,136.93,425.073,137.371,424.888,138.019z
			 M428.78,140.912c-0.371,0.152-0.948,0.33-1.732,0.533c-0.901,0.236-1.49,0.498-1.768,0.785c-0.277,0.287-0.417,0.658-0.417,1.115
			c0,0.516,0.153,0.947,0.461,1.299c0.308,0.35,0.693,0.525,1.156,0.525c0.413,0,0.821-0.141,1.226-0.424
			c0.404-0.283,0.684-0.619,0.84-1.008c0.156-0.389,0.234-1.094,0.234-2.117V140.912z"/>
		<path class="st3" d="M433.492,143.541l2.918-0.543c0.253,1.406,1.036,2.109,2.351,2.109c0.698,0,1.221-0.135,1.566-0.404
			c0.345-0.271,0.518-0.619,0.518-1.051c0-0.295-0.076-0.525-0.228-0.695c-0.159-0.168-0.477-0.314-0.95-0.441
			c-2.39-0.635-3.909-1.24-4.558-1.814c-0.809-0.717-1.213-1.701-1.213-2.951c0-1.248,0.395-2.248,1.188-3
			c0.792-0.752,1.941-1.127,3.448-1.127c1.442,0,2.535,0.279,3.285,0.84c0.75,0.561,1.276,1.463,1.579,2.711l-2.741,0.619
			c-0.244-1.08-0.935-1.619-2.071-1.619c-0.717,0-1.226,0.104-1.529,0.311c-0.303,0.207-0.455,0.477-0.455,0.805
			c0,0.295,0.14,0.539,0.417,0.734c0.277,0.203,1.141,0.508,2.589,0.918c1.624,0.461,2.728,1.016,3.31,1.664
			c0.574,0.648,0.86,1.512,0.86,2.592c0,1.297-0.444,2.367-1.332,3.211c-0.89,0.842-2.116,1.264-3.683,1.264
			c-1.424,0-2.586-0.352-3.487-1.055C434.372,145.914,433.778,144.889,433.492,143.541z"/>
		<path class="st3" d="M451.342,133.939v2.83h-1.983v5.414c0,1.174,0.03,1.854,0.089,2.037c0.118,0.338,0.357,0.508,0.72,0.508
			c0.271,0,0.657-0.113,1.163-0.342l0.252,2.754c-0.674,0.354-1.436,0.531-2.286,0.531c-0.741,0-1.335-0.178-1.781-0.531
			c-0.446-0.354-0.745-0.865-0.897-1.531c-0.118-0.488-0.177-1.484-0.177-2.984v-5.855h-1.339v-2.83h1.339v-2.666l2.918-2.072v4.738
			H451.342z"/>
		<path class="st3" d="M459.77,143.098l2.893,0.594c-0.388,1.348-0.991,2.348-1.809,3.002c-0.818,0.652-1.813,0.979-2.985,0.979
			c-1.628,0-2.884-0.545-3.77-1.633c-1.046-1.266-1.568-3.037-1.568-5.316c0-2.244,0.526-4.041,1.579-5.391
			c0.893-1.139,2.047-1.709,3.462-1.709c1.574,0,2.809,0.582,3.701,1.746c1.027,1.332,1.542,3.299,1.542,5.896l-0.014,0.404h-7.289
			c0.017,1.066,0.256,1.891,0.716,2.473c0.46,0.584,1.016,0.877,1.667,0.877C458.832,145.019,459.457,144.379,459.77,143.098z
			 M459.921,139.498c-0.025-1.049-0.249-1.838-0.67-2.367c-0.421-0.527-0.922-0.791-1.503-0.791c-0.615,0-1.133,0.273-1.554,0.824
			c-0.431,0.559-0.641,1.336-0.632,2.334H459.921z"/>
		<path class="st3" d="M474.779,137.892l-2.868,0.633c-0.212-1.408-0.877-2.111-1.995-2.111c-0.72,0-1.3,0.305-1.741,0.914
			c-0.44,0.607-0.66,1.635-0.66,3.078c0,1.598,0.22,2.725,0.659,3.383c0.439,0.66,1.025,0.99,1.761,0.99
			c0.549,0,1.001-0.188,1.355-0.562s0.608-1.039,0.76-1.99l2.868,0.594c-0.59,3.234-2.287,4.852-5.092,4.852
			c-1.794,0-3.124-0.684-3.992-2.051c-0.867-1.367-1.301-3.012-1.301-4.936c0-2.305,0.491-4.057,1.474-5.26
			c0.982-1.201,2.271-1.803,3.864-1.803c1.29,0,2.342,0.342,3.156,1.023C473.84,135.328,474.424,136.41,474.779,137.892z"/>
		<path class="st3" d="M479.882,128.834v6.797c0.463-0.674,0.975-1.176,1.535-1.51c0.56-0.332,1.169-0.498,1.825-0.498
			c0.876,0,1.608,0.232,2.198,0.695c0.59,0.463,1.011,1.121,1.264,1.973c0.185,0.625,0.278,1.686,0.278,3.188v7.877h-2.919v-7.096
			c0-1.645-0.105-2.672-0.315-3.086c-0.294-0.557-0.794-0.834-1.499-0.834c-0.748,0-1.329,0.301-1.744,0.904
			c-0.416,0.602-0.624,1.73-0.624,3.383v6.729h-2.919v-18.521H479.882z"/>
		<path class="st3" d="M499.945,147.355h-2.919V140.5c0-1.375-0.055-2.289-0.164-2.744c-0.109-0.455-0.314-0.805-0.612-1.051
			c-0.3-0.244-0.638-0.365-1.017-0.365c-0.489,0-0.932,0.156-1.327,0.473c-0.396,0.316-0.674,0.754-0.834,1.311
			c-0.159,0.557-0.239,1.605-0.239,3.148v6.084h-2.919v-13.416h2.703v1.957c0.481-0.758,1.022-1.326,1.624-1.705
			c0.602-0.379,1.27-0.568,2.002-0.568c0.851,0,1.569,0.221,2.154,0.664c0.586,0.441,0.99,1.012,1.213,1.707
			c0.224,0.695,0.335,1.701,0.335,3.016V147.355z"/>
		<path class="st3" d="M502.901,132.119v-3.285h2.918v3.285H502.901z M502.901,147.355v-13.416h2.918v13.416H502.901z"/>
		<path class="st3" d="M515.194,143.098l2.893,0.594c-0.388,1.348-0.991,2.348-1.809,3.002c-0.818,0.652-1.813,0.979-2.985,0.979
			c-1.628,0-2.884-0.545-3.769-1.633c-1.046-1.266-1.568-3.037-1.568-5.316c0-2.244,0.526-4.041,1.579-5.391
			c0.893-1.139,2.047-1.709,3.462-1.709c1.574,0,2.809,0.582,3.701,1.746c1.027,1.332,1.542,3.299,1.542,5.896l-0.014,0.404h-7.289
			c0.017,1.066,0.256,1.891,0.716,2.473c0.46,0.584,1.016,0.877,1.667,0.877C514.256,145.019,514.881,144.379,515.194,143.098z
			 M515.345,139.498c-0.025-1.049-0.249-1.838-0.67-2.367c-0.421-0.527-0.922-0.791-1.503-0.791c-0.615,0-1.133,0.273-1.554,0.824
			c-0.43,0.559-0.641,1.336-0.632,2.334H515.345z"/>
		<path class="st3" d="M520.499,147.355v-18.521h2.919v9.814l3.403-4.709h3.589l-3.765,4.91l4.03,8.506h-3.131l-2.791-6.039
			l-1.336,1.744v4.295H520.499z"/>
	</g>
	<path class="st3" d="M38.967,83.617h35.713l13.772,61.588l13.674-61.588h35.692v101.219h-22.241v-77.189l-17.136,77.189H78.311
		l-17.104-77.189v77.189h-22.24V83.617z"/>
	<path class="st3" d="M155.143,83.617h27.157v76.295h42.381v24.924h-69.538V83.617z"/>
	<path class="st3" d="M214.492,83.617h82.545v24.994h-27.694v76.225h-27.155v-76.225h-27.695V83.617z"/>
	<path class="st3" d="M413.573,89.416l-5.062-19.041l0.197-4.387l-0.892-3.594l-1.188-1.709l-4.871-16.529l-4.682-7.707
		l-1.457-0.117l-0.23-2.658L383.996,1.072l-2.574-0.889L379.087,0l-2.399,0.642l-2.585,1.121l-0.72,1.703l0.334,1.348l5.949,23.367
		l-0.417,1.584l-0.507,0.844l-0.048,2.492l1.474,5.545l-0.08,8.51l-27.442-2.004l-5.001-3.621l-2.703-1.094l-1.604-0.127
		l-15.201-6.475l0.17-2.191l-6.604-3.746l-1.583-0.416l-13.446-0.762l-0.761-1.529l-4.985-0.096l-1.685,0.894l-3.232,0.041
		l-1.732,1.479l-0.183,2.334l-38.372,2.57l-6.857-0.537l-2.4-1.215l-3.029-0.676l-4.658-0.516l-4.963,1.521l-4.726,0.365
		l-2.832,2.42l-0.149,1.896l-10.428-0.348v22.797l11.416,0.531l1.176,1.852l3.848,1.478l4.489,0.791l9.81,0.33l4.75-2.566
		l50.031,0.4l27.913,1.6l3.635,2.34l4.197,0.773l2.896,0.516l1.979-2.779l4.703-0.07l4.842-1.824l32.245,2.529l0.961,2.715
		l-0.263,3.358l2.285,4.582l0.794,1.088l5.773,19.981l1.054,1.549l1.167,0.092l1.692,0.867l2.699,6.783l2.627,0.207l3.209,0.252
		l4.098-1.701l2.826-1.1l0.205-2.627l-1.357-4.51l1.93-2.785L413.573,89.416z M341.673,52.654l-1.376,7.537l-1.09,0.441
		l-1.523,1.883l-2.535-0.199l-6.095-2.891l-26.382-1.619l-12.65-0.246l-38.641-0.238l-1.785-2.687l-1.228-5.672l-0.62-4.711
		l0.421-5.375l1.269-3.703l7.3,0.57l38.898-3.32l26.267,2.059l3.396,1.705l1.284,1.01l12.792,5.457l2.075,1.027l0.641,3.633
		L341.673,52.654z M411.363,92.033l-2.057,1.894l-0.539,1.281l0.333,1.348l1.576,4.232l-1.224,0.637l-2.717,0.961l-1.968,0.731
		l-1.604-0.127l-1.895-0.148l-1.375-4.953l-1.806-1.314l-2.669-1.531l-6.938-21.979l-1.948-3.234l0.103-1.314l3.401-0.318
		l5.256-1.498l3.459-1.047l4.548-1.85l2.124-0.861l1.295,4.068l-0.553,1.422l-0.169,2.19l5.481,19.957L411.363,92.033z"/>
	<polygon class="st3" points="408.815,104.164 410.471,114.502 405.61,105.496 	"/>
	<rect x="38.967" y="38.178" class="st0" width="176.591" height="17.793"/>
</g>
</svg>