<!-- Generator: Adobe Illustrator 22.0.1, SVG Export Plug-In  -->
<svg version="1.1"
	 xmlns="http://www.w3.org/2000/svg" xmlns:xlink="http://www.w3.org/1999/xlink" xmlns:a="http://ns.adobe.com/AdobeSVGViewerExtensions/3.0/"
	 x="0px" y="0px" width="53.757px" height="71.751px" viewBox="0 0 53.757 71.751"
	 style="enable-background:new 0 0 53.757 71.751;" xml:space="preserve">
<style type="text/css">
	.st0{fill:#FFFFFF;}
</style>
<defs>
</defs>
<path class="st0" d="M14.412,30.835c3.725,6.56,7.527,13.19,11.363,19.683c4.183,6.787,12.248,3.633,16.372,2.02l0.733-0.286
	l6.132,10.62l-0.404,0.383c-0.978,0.927-1.986,1.685-3.005,2.292c-1.085,0.648-2.184,1.118-3.274,1.437
	c-1.462,0.427-2.91,0.582-4.286,0.523c-1.521-0.065-2.956-0.388-4.233-0.887c-8.381-3.275-15.917-11.444-21.28-20.733
	C6.564,35.556,3.269,23.796,4.482,15.826c0.206-1.354,0.644-2.757,1.349-4.108c0.64-1.225,1.497-2.403,2.599-3.456
	c0.819-0.783,1.775-1.498,2.879-2.116c1.028-0.575,2.188-1.069,3.489-1.454l0.531-0.157l6.13,10.619l-0.614,0.492
	C17.386,18.408,10.622,23.815,14.412,30.835L14.412,30.835z M2.084,9.754c-0.927,1.781-1.504,3.639-1.778,5.436
	c-1.384,9.096,2.017,21.708,8.416,32.792c5.829,10.094,14.13,18.893,23.547,22.573c1.696,0.663,3.594,1.092,5.598,1.18
	c1.822,0.079,3.735-0.122,5.665-0.687c1.689-0.494,3.392-1.265,5.057-2.369c1.545-1.024,3.055-2.332,4.491-3.967l0.039-0.041
	c0.342-0.334,0.556-0.771,0.619-1.232c0.062-0.452-0.02-0.928-0.265-1.352l-7.799-13.511c-0.245-0.421-0.625-0.739-1.064-0.912
	c-0.433-0.17-0.922-0.202-1.398-0.058l-0.003,0.003c-0.312,0.093-0.609,0.196-0.905,0.306c-0.207,0.077-0.594,0.23-0.999,0.39
	c-0.336,0.131-0.488,0.194-0.661,0.264c-2.986,1.22-8.839,3.613-11.238-0.234c-3.569-6.223-8.149-13.275-11.289-19.557
	c-2.132-4.002,2.867-7.875,5.416-9.851l0.559-0.437c0.281-0.223,0.553-0.439,0.835-0.673c0.253-0.206,0.493-0.414,0.721-0.63
	c0.365-0.338,0.581-0.777,0.65-1.236c0.07-0.471-0.014-0.959-0.256-1.38L18.241,1.064c-0.245-0.425-0.615-0.733-1.037-0.905
	c-0.433-0.177-0.92-0.21-1.38-0.081l-0.053,0.014c-2.137,0.426-4.025,1.08-5.682,1.905c-1.788,0.89-3.308,1.98-4.582,3.197
	C4.057,6.58,2.927,8.135,2.084,9.754L2.084,9.754z"/>
</svg>